HIERARCHY
ROOT reference
{
  OFFSET 0 0 0
  CHANNELS 6 Xposition Yposition Zposition Zrotation Xrotation Yrotation
  JOINT Hips
  {
    OFFSET 339.145 90.8604 236.464
    CHANNELS 3 Zrotation Xrotation Yrotation
    JOINT RightUpLeg
    {
      OFFSET -9.24113 -1.522 -0.0337757
      CHANNELS 3 Zrotation Xrotation Yrotation
      JOINT RightLeg
      {
        OFFSET 0.0344394 -41.8985 0.100154
        CHANNELS 3 Zrotation Xrotation Yrotation
        JOINT RightFoot
        {
          OFFSET -0.415571 -42.0751 0.023027
          CHANNELS 3 Zrotation Xrotation Yrotation
          End Site
          {
            OFFSET 0 -7.69 17.5
          }
        }
      }
    }
    JOINT LeftUpLeg
    {
      OFFSET 9.30897 -1.67379 -0.0291548
      CHANNELS 3 Zrotation Xrotation Yrotation
      JOINT LeftLeg
      {
        OFFSET 0.0832755 -41.864 -0.14338
        CHANNELS 3 Zrotation Xrotation Yrotation
        JOINT LeftFoot
        {
          OFFSET 0.17151 -41.5225 0.735469
          CHANNELS 3 Zrotation Xrotation Yrotation
          End Site
          {
            OFFSET 0 -7.69 17.5
          }
        }
      }
    }
    JOINT Spine
    {
      OFFSET 0.00853273 14.2903 0.0777264
      CHANNELS 3 Zrotation Xrotation Yrotation
      JOINT Spine1
      {
        OFFSET 0.0173944 9.71323 0.029081
        CHANNELS 3 Zrotation Xrotation Yrotation
        JOINT Spine2
        {
          OFFSET 0.0412483 10.1247 -0.0145163
          CHANNELS 3 Zrotation Xrotation Yrotation
          JOINT Spine3
          {
            OFFSET 0.0279063 9.71793 0.00755232
            CHANNELS 3 Zrotation Xrotation Yrotation
            JOINT Neck
            {
              OFFSET 0.0852486 10.3712 0.0268485
              CHANNELS 3 Zrotation Xrotation Yrotation
              JOINT Head
              {
                OFFSET 0.0739267 9.48251 0.0332551
                CHANNELS 3 Zrotation Xrotation Yrotation
                End Site
                {
                  OFFSET 0 15.95 0
                }
              }
            }
            JOINT RightShoulder
            {
              OFFSET -3.14957 6.95772 0.0300988
              CHANNELS 3 Zrotation Xrotation Yrotation
              JOINT RightArm
              {
                OFFSET -12.7513 0.0411148 0.0791701
                CHANNELS 3 Zrotation Xrotation Yrotation
                JOINT RightForeArm
                {
                  OFFSET -26.4959 0.0361336 0.259434
                  CHANNELS 3 Zrotation Xrotation Yrotation
                  JOINT RightHand
                  {
                    OFFSET -25.9829 -0.0837334 0.191464
                    CHANNELS 3 Zrotation Xrotation Yrotation
                    JOINT RightHandThumb1
                    {
                      OFFSET -2.48905 0.190105 3.12053
                      CHANNELS 3 Zrotation Xrotation Yrotation
                      JOINT RightHandThumb2
                      {
                        OFFSET -3.68274 0 0
                        CHANNELS 3 Zrotation Xrotation Yrotation
                        JOINT RightHandThumb3
                        {
                          OFFSET -2.55832 0 0
                          CHANNELS 3 Zrotation Xrotation Yrotation
                          End Site
                          {
                            OFFSET -2.194 0 0
                          }
                        }
                      }
                    }
                    JOINT RightInHandIndex
                    {
                      OFFSET -3.22368 0.508421 1.97842
                      CHANNELS 3 Zrotation Xrotation Yrotation
                      JOINT RightHandIndex1
                      {
                        OFFSET -5.21684 -0.091368 0.999158
                        CHANNELS 3 Zrotation Xrotation Yrotation
                        JOINT RightHandIndex2
                        {
                          OFFSET -3.61937 0 0
                          CHANNELS 3 Zrotation Xrotation Yrotation
                          JOINT RightHandIndex3
                          {
                            OFFSET -2.0521 0 0
                            CHANNELS 3 Zrotation Xrotation Yrotation
                            End Site
                            {
                              OFFSET -1.805 0 0
                            }
                          }
                        }
                      }
                    }
                    JOINT RightInHandMiddle
                    {
                      OFFSET -3.38211 0.517263 0.756737
                      CHANNELS 3 Zrotation Xrotation Yrotation
                      JOINT RightHandMiddle1
                      {
                        OFFSET -5.17411 -0.084 0.313895
                        CHANNELS 3 Zrotation Xrotation Yrotation
                        JOINT RightHandMiddle2
                        {
                          OFFSET -3.94947 0 0
                          CHANNELS 3 Zrotation Xrotation Yrotation
                          JOINT RightHandMiddle3
                          {
                            OFFSET -2.47579 0 0
                            CHANNELS 3 Zrotation Xrotation Yrotation
                            End Site
                            {
                              OFFSET -1.975 0 0
                            }
                          }
                        }
                      }
                    }
                    JOINT RightInHandRing
                    {
                      OFFSET -3.36516 0.537895 -0.128947
                      CHANNELS 3 Zrotation Xrotation Yrotation
                      JOINT RightHandRing1
                      {
                        OFFSET -4.63474 -0.022105 -0.478947
                        CHANNELS 3 Zrotation Xrotation Yrotation
                        JOINT RightHandRing2
                        {
                          OFFSET -3.44238 0 0
                          CHANNELS 3 Zrotation Xrotation Yrotation
                          JOINT RightHandRing3
                          {
                            OFFSET -2.3881 0 0
                            CHANNELS 3 Zrotation Xrotation Yrotation
                            End Site
                            {
                              OFFSET -1.857 0 0
                            }
                          }
                        }
                      }
                    }
                    JOINT RightInHandPinky
                    {
                      OFFSET -3.16105 0.469368 -1.20179
                      CHANNELS 3 Zrotation Xrotation Yrotation
                      JOINT RightHandPinky1
                      {
                        OFFSET -4.14105 -0.022105 -1.09053
                        CHANNELS 3 Zrotation Xrotation Yrotation
                        JOINT RightHandPinky2
                        {
                          OFFSET -2.75653 0 0
                          CHANNELS 3 Zrotation Xrotation Yrotation
                          JOINT RightHandPinky3
                          {
                            OFFSET -1.74189 0 0
                            CHANNELS 3 Zrotation Xrotation Yrotation
                            End Site
                            {
                              OFFSET -1.645 0 0
                            }
                          }
                        }
                      }
                    }
                  }
                }
              }
            }
            JOINT LeftShoulder
            {
              OFFSET 3.25273 6.91522 -0.0295735
              CHANNELS 3 Zrotation Xrotation Yrotation
              JOINT LeftArm
              {
                OFFSET 12.7785 0.0134102 -0.0213482
                CHANNELS 3 Zrotation Xrotation Yrotation
                JOINT LeftForeArm
                {
                  OFFSET 26.5044 -0.0446277 0.0404034
                  CHANNELS 3 Zrotation Xrotation Yrotation
                  JOINT LeftHand
                  {
                    OFFSET 25.9955 -0.0467726 -0.0166804
                    CHANNELS 3 Zrotation Xrotation Yrotation
                    JOINT LeftHandThumb1
                    {
                      OFFSET 2.48905 0.190105 3.12053
                      CHANNELS 3 Zrotation Xrotation Yrotation
                      JOINT LeftHandThumb2
                      {
                        OFFSET 3.68274 0 0
                        CHANNELS 3 Zrotation Xrotation Yrotation
                        JOINT LeftHandThumb3
                        {
                          OFFSET 2.55832 0 0
                          CHANNELS 3 Zrotation Xrotation Yrotation
                          End Site
                          {
                            OFFSET 2.194 0 0
                          }
                        }
                      }
                    }
                    JOINT LeftInHandIndex
                    {
                      OFFSET 3.22368 0.508421 1.97842
                      CHANNELS 3 Zrotation Xrotation Yrotation
                      JOINT LeftHandIndex1
                      {
                        OFFSET 5.21684 -0.091368 0.999158
                        CHANNELS 3 Zrotation Xrotation Yrotation
                        JOINT LeftHandIndex2
                        {
                          OFFSET 3.61937 0 0
                          CHANNELS 3 Zrotation Xrotation Yrotation
                          JOINT LeftHandIndex3
                          {
                            OFFSET 2.0521 0 0
                            CHANNELS 3 Zrotation Xrotation Yrotation
                            End Site
                            {
                              OFFSET 1.805 0 0
                            }
                          }
                        }
                      }
                    }
                    JOINT LeftInHandMiddle
                    {
                      OFFSET 3.38211 0.517263 0.756737
                      CHANNELS 3 Zrotation Xrotation Yrotation
                      JOINT LeftHandMiddle1
                      {
                        OFFSET 5.17411 -0.084 0.313895
                        CHANNELS 3 Zrotation Xrotation Yrotation
                        JOINT LeftHandMiddle2
                        {
                          OFFSET 3.94947 0 0
                          CHANNELS 3 Zrotation Xrotation Yrotation
                          JOINT LeftHandMiddle3
                          {
                            OFFSET 2.47579 0 0
                            CHANNELS 3 Zrotation Xrotation Yrotation
                            End Site
                            {
                              OFFSET 1.975 0 0
                            }
                          }
                        }
                      }
                    }
                    JOINT LeftInHandRing
                    {
                      OFFSET 3.36516 0.537895 -0.128947
                      CHANNELS 3 Zrotation Xrotation Yrotation
                      JOINT LeftHandRing1
                      {
                        OFFSET 4.63474 -0.022105 -0.478947
                        CHANNELS 3 Zrotation Xrotation Yrotation
                        JOINT LeftHandRing2
                        {
                          OFFSET 3.44238 0 0
                          CHANNELS 3 Zrotation Xrotation Yrotation
                          JOINT LeftHandRing3
                          {
                            OFFSET 2.3881 0 0
                            CHANNELS 3 Zrotation Xrotation Yrotation
                            End Site
                            {
                              OFFSET 1.857 0 0
                            }
                          }
                        }
                      }
                    }
                    JOINT LeftInHandPinky
                    {
                      OFFSET 3.16105 0.469368 -1.20179
                      CHANNELS 3 Zrotation Xrotation Yrotation
                      JOINT LeftHandPinky1
                      {
                        OFFSET 4.14105 -0.022105 -1.09053
                        CHANNELS 3 Zrotation Xrotation Yrotation
                        JOINT LeftHandPinky2
                        {
                          OFFSET 2.75653 0 0
                          CHANNELS 3 Zrotation Xrotation Yrotation
                          JOINT LeftHandPinky3
                          {
                            OFFSET 1.74189 0 0
                            CHANNELS 3 Zrotation Xrotation Yrotation
                            End Site
                            {
                              OFFSET 1.645 0 0
                            }
                          }
                        }
                      }
                    }
                  }
                }
              }
            }
          }
        }
      }
    }
  }
}
MOTION
Frames: 2
Frame Time: 0.00833333
1.050000000000000000e+03 0.000000000000000000e+00 0.000000000000000000e+00 0.000000000000000000e+00 0.000000000000000000e+00 0.000000000000000000e+00 3.197493922273693201e+01 6.114136647860201279e+00 -1.382145697349920397e+02 1.934327802449914913e+01 -6.087338942050845247e+01 1.810711422451552011e+01 -4.181058059618478318e+00 2.107660294480387364e+01 -3.829118370026906248e+00 1.112781217672647571e+01 -4.913325240729029098e+00 3.974200152738148972e+01 3.771281709154902018e+01 -3.596586736454604960e+01 2.806159433253129265e+01 -1.442659893382717939e+01 4.142398869521814220e+01 1.745696306072481363e+01 -7.507160824163650048e+00 -2.022690822459415116e+01 9.642005230711898633e+00 -8.111580546675384085e+00 9.045942224681493116e+00 -7.796740278630313270e+00 -1.827710388642433958e+00 2.427097477266714431e+00 -2.176512672489457234e+00 -3.096057476578585543e+00 4.003661944644994364e+00 -2.964850379615794118e+00 -1.058287675434459674e+00 -5.447169123310862116e-01 2.368263801447375805e+00 -1.909233316178752915e+00 -2.336516627913823196e+00 3.100989680651613511e+01 -1.809655298691697212e+01 -5.895652190514300450e+00 2.713915276168102508e+01 5.254395243642924207e+00 1.160507352553709737e+00 9.570056001882054630e+00 7.928865527364310140e+01 -5.171825077685411998e+01 1.635678482980342352e+01 7.114895994159907389e+01 -2.786959184522416422e+01 7.940539543468442218e+01 1.471156820589886038e+01 -2.745932080570859313e+01 -1.743516144015028857e+00 2.818400000000000105e+01 1.072940000000000005e+01 1.915919999999999845e+01 -1.769486896629004763e-14 -1.799596200344621173e-15 -1.000000000000000000e+01 -1.023425755035058203e-14 -2.037709772478955335e-15 -1.000000000000000000e+01 -8.439598264672754101e-15 -2.331539005574187200e-15 2.781919995454590614e-16 1.998179999999999978e+01 8.718970000000000331e-01 2.396399999999999864e+00 2.400000000000000000e+01 -5.673018916767835938e-15 -2.599487625396067414e-14 2.000000000000000000e+01 -1.480717896686047907e-15 -2.465678196019718794e-14 -8.439598264672754101e-15 -2.331539005574187200e-15 2.781919995454590614e-16 2.000000000000000000e+01 2.582667541763115233e-16 -1.631965617980858656e-14 2.400000000000000000e+01 -2.045976746043357651e-15 -2.258253141881227080e-14 2.000000000000000000e+01 -2.091666586578932465e-15 -1.696473590605077178e-14 -8.439598264672754101e-15 -2.331539005574187200e-15 2.781919995454590614e-16 1.997479999999999833e+01 -1.025649999999999951e+00 -2.819380000000000219e+00 2.400000000000000000e+01 -9.749786918132758322e-15 -3.690316613395370971e-14 2.000000000000000000e+01 -3.079324507407544800e-15 -3.458663905963680534e-14 -8.439598264672754101e-15 -2.331539005574187200e-15 2.781919995454590614e-16 1.978150000000000119e+01 -3.009479999999999933e+00 -8.305149999999999366e+00 2.400000000000000000e+01 -7.379209136959971080e-15 -2.282569318053288951e-14 2.000000000000000000e+01 -9.765213139217190644e-15 -2.260429425736318150e-14 2.066542429260764280e+01 -1.964939987552201472e+01 -4.887927165203566915e+01 -1.445480438447479798e+01 4.395316052528320938e+01 -1.032812168762849296e+02 3.900065903103740084e+01 -1.169092213009548686e+01 3.815921348252399525e+01 -2.366435664860504318e+01 -2.141757368685808416e+01 9.093551464444141530e+00 -2.818400000000000105e+01 1.072940000000000005e+01 -1.915919999999999845e+01 1.586195176269518765e-14 -1.663510963974878124e-15 1.000000000000000000e+01 -2.290462616169720180e-14 -3.623830091742075795e-15 1.000000000000000000e+01 5.273514858553193490e-15 9.527847046062242365e-15 2.558898099909488638e-15 -1.998179999999999978e+01 8.718970000000000331e-01 -2.396399999999999864e+00 -2.400000000000000000e+01 3.266056511712584585e-15 6.010527278476347470e-15 -2.000000000000000000e+01 -3.030899225096278252e-15 3.445912121151398137e-15 5.273514858553193490e-15 9.527847046062242365e-15 2.558898099909488638e-15 -2.000000000000000000e+01 7.281621500113532769e-15 8.898759781261465408e-15 -2.400000000000000000e+01 -6.684345619051295207e-16 6.587689899239399624e-15 -2.000000000000000000e+01 4.159663806771950740e-15 1.132879154446737980e-14 5.273514858553193490e-15 9.527847046062242365e-15 2.558898099909488638e-15 -1.997479999999999833e+01 -1.025649999999999951e+00 2.819380000000000219e+00 -2.400000000000000000e+01 -8.626323060098987017e-16 1.848748864350665990e-14 -2.000000000000000000e+01 7.122745781874479051e-16 -1.181536566550183952e-15 5.273514858553193490e-15 9.527847046062242365e-15 2.558898099909488638e-15 -1.978150000000000119e+01 -3.009479999999999933e+00 8.305149999999999366e+00 -2.400000000000000000e+01 5.412428426600864781e-16 2.756267749759774232e-15 -2.000000000000000000e+01 8.670144470498150765e-16 -1.247550865550633954e-15
1.050000000000000000e+03 0.000000000000000000e+00 0.000000000000000000e+00 0.000000000000000000e+00 0.000000000000000000e+00 0.000000000000000000e+00 3.193257430494861993e+01 6.119057774133404237e+00 -1.380116739089520479e+02 1.931370499341128522e+01 -6.075421524568683651e+01 1.808597010393011573e+01 -4.176444272322180851e+00 2.105259594101994480e+01 -3.837495743281680305e+00 1.110296880086522897e+01 -4.862655949983235359e+00 3.972716022873865427e+01 3.761898286009073189e+01 -3.592744662635232800e+01 2.797209466434597047e+01 -1.439095235748723312e+01 4.140492138171821068e+01 1.740762270712446025e+01 -7.494893042817563966e+00 -2.020176595302217848e+01 9.572295013219141779e+00 -8.091728197643687892e+00 9.023190678094737294e+00 -7.752274430253127235e+00 -1.823388318533986308e+00 2.420338730831501639e+00 -2.164146111905798531e+00 -3.088578149223398128e+00 3.992190350479696725e+00 -2.948078156865214794e+00 -1.055921131889605791e+00 -5.441734148210376487e-01 2.362523054568853809e+00 -1.904365824899290072e+00 -2.342722704141960932e+00 3.092801728521988025e+01 -1.805440237094407507e+01 -5.863378032785055538e+00 2.707260311233056882e+01 5.238388474856634502e+00 1.132973995009995960e+00 9.588949675736934353e+00 7.920582938398659678e+01 -5.164210859885467642e+01 1.642624744525232217e+01 7.098435081521151346e+01 -2.777672981584308687e+01 7.942322939270206916e+01 1.471068539197160518e+01 -2.742805809126650018e+01 -1.690042834451604747e+00 2.818400000000000105e+01 1.072940000000000005e+01 1.915919999999999845e+01 -1.769962309448403023e-14 -1.798472624718448577e-15 -1.000000000000000000e+01 -1.023690963624333885e-14 -2.044106714307662339e-15 -1.000000000000000000e+01 -8.433821926113481009e-15 -2.324311900281947317e-15 2.784836950852700128e-16 1.998179999999999978e+01 8.718970000000000331e-01 2.396399999999999864e+00 2.400000000000000000e+01 -5.678611403315861577e-15 -2.601160893524353324e-14 2.000000000000000000e+01 -1.477836703224302275e-15 -2.465312394342869579e-14 -8.433821926113481009e-15 -2.324311900281947317e-15 2.784836950852700128e-16 2.000000000000000000e+01 2.559152881963203086e-16 -1.633377452174200716e-14 2.400000000000000000e+01 -2.052934684366596715e-15 -2.260384442488803627e-14 2.000000000000000000e+01 -2.088714020672648322e-15 -1.697476322181387833e-14 -8.433821926113481009e-15 -2.324311900281947317e-15 2.784836950852700128e-16 1.997479999999999833e+01 -1.025649999999999951e+00 -2.819380000000000219e+00 2.400000000000000000e+01 -9.753825970965638431e-15 -3.690616091295739140e-14 2.000000000000000000e+01 -3.077769789441022584e-15 -3.459225520274820704e-14 -8.433821926113481009e-15 -2.324311900281947317e-15 2.784836950852700128e-16 1.978150000000000119e+01 -3.009479999999999933e+00 -8.305149999999999366e+00 2.400000000000000000e+01 -7.375439195255263498e-15 -2.284264521178384387e-14 2.000000000000000000e+01 -9.759343450784680641e-15 -2.260543877213770280e-14 2.063385100090817303e+01 -1.964207741933745055e+01 -4.884741453129613831e+01 -1.454595041253814713e+01 4.384984708997785674e+01 -1.032129285440369841e+02 3.893210735279779300e+01 -1.169439869759638739e+01 3.787620696107403973e+01 -2.366893369724046181e+01 -2.138918558638258816e+01 9.036391605923320469e+00 -2.818400000000000105e+01 1.072940000000000005e+01 -1.915919999999999845e+01 1.585413163053796450e-14 -1.659320709393275424e-15 1.000000000000000000e+01 -2.289389581349243069e-14 -3.617353932583210608e-15 1.000000000000000000e+01 5.275280358105529174e-15 9.528088530012566599e-15 2.554200200099403114e-15 -1.998179999999999978e+01 8.718970000000000331e-01 -2.396399999999999864e+00 -2.400000000000000000e+01 3.260259119123209907e-15 6.006742870502718706e-15 -2.000000000000000000e+01 -3.024955305967195346e-15 3.450864155489977948e-15 5.275280358105529174e-15 9.528088530012566599e-15 2.554200200099403114e-15 -2.000000000000000000e+01 7.275640072355683041e-15 8.883035113099825940e-15 -2.400000000000000000e+01 -6.645680407181862919e-16 6.581660522483946726e-15 -2.000000000000000000e+01 4.156928274907428551e-15 1.133262972200873230e-14 5.275280358105529174e-15 9.528088530012566599e-15 2.554200200099403114e-15 -1.997479999999999833e+01 -1.025649999999999951e+00 2.819380000000000219e+00 -2.400000000000000000e+01 -8.640148999598567590e-16 1.847307264313195899e-14 -2.000000000000000000e+01 7.098218393446414071e-16 -1.185863115211436946e-15 5.275280358105529174e-15 9.528088530012566599e-15 2.554200200099403114e-15 -1.978150000000000119e+01 -3.009479999999999933e+00 8.305149999999999366e+00 -2.400000000000000000e+01 5.394717382155774533e-16 2.755659284975914129e-15 -2.000000000000000000e+01 8.652205867525300137e-16 -1.231225076582630488e-15
